<?xml version="1.0" standalone="no"?>
<!DOCTYPE svg PUBLIC "-//W3C//DTD SVG 20010904//EN"
 "http://www.w3.org/TR/2001/REC-SVG-20010904/DTD/svg10.dtd">
<svg version="1.0" xmlns="http://www.w3.org/2000/svg"
 width="160.000000pt" height="160.000000pt" viewBox="0 0 160.000000 160.000000"
 preserveAspectRatio="xMidYMid meet">
<metadata>
Created by potrace 1.11, written by Peter Selinger 2001-2013
</metadata>
<g transform="translate(0.000000,160.000000) scale(0.100000,-0.100000)"
fill="#000000" stroke="none">
<path d="M733 1465 l-62 -105 33 0 c28 0 36 6 61 50 17 27 33 50 37 50 4 0 19
-22 34 -50 24 -45 31 -50 61 -50 19 0 32 3 30 8 -37 67 -121 202 -126 202 -3
0 -34 -47 -68 -105z"/>
<path d="M887 1333 c-4 -3 -45 -6 -90 -4 -76 1 -86 -1 -110 -23 -15 -14 -27
-21 -27 -16 0 5 -9 14 -20 20 -16 9 -30 6 -68 -14 -26 -14 -68 -34 -93 -46
-32 -14 -51 -30 -59 -50 -10 -25 -16 -28 -40 -24 -22 5 -31 1 -46 -21 -11 -15
-38 -49 -62 -76 -39 -46 -47 -67 -44 -111 1 -13 -6 -18 -23 -18 -30 0 -45 -26
-45 -79 0 -22 -4 -42 -9 -45 -19 -12 -23 -83 -7 -115 15 -29 15 -31 -4 -41
-23 -12 -25 -44 -5 -80 8 -14 14 -40 15 -58 0 -45 23 -86 65 -118 26 -19 35
-34 35 -55 0 -34 -17 -38 -29 -6 -6 14 -5 27 3 36 9 11 8 13 -4 9 -29 -9 -21
-38 19 -78 23 -23 41 -44 41 -48 0 -18 63 -71 91 -77 22 -5 29 -12 29 -31 0
-20 8 -28 38 -40 20 -8 59 -26 86 -40 37 -20 58 -25 90 -22 36 4 44 2 52 -16
8 -20 16 -21 117 -20 93 0 111 3 136 22 25 18 31 19 41 7 17 -21 43 -19 73 6
15 11 47 27 72 35 39 14 95 62 95 83 0 4 13 6 29 3 23 -3 32 2 51 30 13 18 41
52 62 75 35 39 43 61 39 105 -1 11 7 18 26 20 19 2 29 10 31 23 4 19 3 19 -10
1 -8 -10 -23 -17 -34 -14 -18 3 -18 4 4 26 13 13 22 26 19 28 -2 3 -16 -9 -30
-26 -20 -24 -25 -37 -20 -64 3 -19 0 -42 -6 -52 -9 -16 -10 -14 -11 16 -1 42
-16 65 -50 74 -14 4 -35 12 -47 18 -36 18 -53 4 -53 -45 0 -26 -6 -49 -14 -56
-9 -8 -14 -29 -13 -57 2 -37 4 -42 14 -28 14 20 70 25 84 7 9 -10 5 -15 -16
-23 -14 -5 -30 -10 -34 -10 -9 0 -39 -32 -40 -42 -1 -5 -1 -12 -1 -16 0 -20
-40 -50 -60 -45 -26 7 -25 25 1 54 l20 24 -5 -40 c-5 -37 -4 -38 9 -21 27 36
18 71 -27 115 -23 23 -46 40 -52 38 -5 -2 -19 -20 -31 -41 -11 -20 -32 -43
-45 -49 -16 -8 -25 -21 -25 -35 0 -13 -7 -27 -15 -33 -12 -8 -10 -9 8 -4 28 8
82 -12 82 -30 0 -8 -17 -12 -50 -12 -40 1 -54 -4 -65 -20 -8 -12 -29 -26 -47
-32 l-33 -12 33 28 c35 30 47 82 24 105 -7 7 -12 19 -12 28 0 35 -21 40 -59
14 -19 -13 -48 -24 -63 -24 -18 0 -33 -8 -44 -24 -8 -14 -23 -27 -32 -29 -10
-3 -6 -5 10 -6 27 -1 58 -33 58 -58 0 -10 -11 -8 -39 6 -23 12 -48 18 -62 15
-13 -4 -40 -8 -59 -10 l-35 -5 33 15 c50 23 65 42 60 77 -3 16 -1 32 4 35 13
8 10 42 -4 47 -7 2 -31 0 -52 -5 -25 -6 -43 -5 -50 2 -13 13 -53 13 -62 -1 -3
-6 -17 -9 -30 -6 -31 6 -31 -1 0 -13 16 -6 25 -19 28 -40 4 -26 1 -34 -19 -43
-30 -13 -57 0 -61 32 -5 29 12 27 28 -4 7 -14 17 -25 22 -25 13 0 -22 49 -43
60 -10 6 -29 10 -42 10 -14 0 -33 8 -44 17 -10 10 -14 15 -9 10 12 -8 52 -9
82 -1 12 3 28 18 35 32 7 15 20 35 27 44 22 26 8 45 -37 53 -25 4 -45 15 -55
29 -11 18 -21 22 -40 19 -15 -3 -33 0 -41 7 -13 11 -14 10 -9 -4 3 -9 10 -16
15 -16 11 0 1 -49 -14 -68 -13 -16 -27 2 -27 36 0 21 -17 41 -65 81 -9 7 -14
15 -11 18 3 3 11 1 18 -5 25 -20 72 -18 94 5 12 12 25 19 28 16 3 -4 6 -2 6 4
0 10 -22 23 -41 23 -4 0 -6 -6 -3 -14 11 -29 -19 -27 -50 3 -36 35 -51 38 -65
14 -9 -15 -10 -12 -11 15 0 22 5 32 15 32 9 0 27 11 41 25 20 21 29 23 40 14
7 -6 11 -15 8 -20 -3 -5 4 -9 15 -9 11 0 23 -5 26 -11 5 -7 -14 -9 -58 -7 -36
1 -69 -1 -73 -5 -4 -4 29 -7 73 -7 82 0 114 -14 97 -41 -4 -8 -3 -9 4 -5 20
12 13 30 -23 59 -19 15 -34 31 -34 35 4 26 -4 41 -26 46 -14 4 -30 17 -36 29
-8 20 -9 19 -4 -6 4 -21 -1 -34 -20 -53 -33 -33 -45 -24 -32 24 9 33 7 46 -11
84 -27 55 -28 87 -2 36 18 -34 52 -56 75 -49 6 2 27 3 48 3 48 -1 55 16 32 68
-14 31 -15 43 -6 54 10 12 8 19 -8 35 -12 12 -21 31 -22 44 -1 20 -1 20 -10
-5 -11 -28 -58 -51 -79 -38 -7 4 -8 9 -4 11 5 2 20 17 33 32 19 20 24 37 23
66 -2 20 2 48 8 62 10 23 10 23 5 -4 -3 -16 1 -42 10 -60 12 -26 22 -33 48
-35 17 -2 34 -7 35 -12 7 -18 52 -11 52 8 0 14 -2 14 -9 3 -12 -18 -45 -6 -37
14 3 8 1 17 -5 20 -5 4 -12 0 -15 -9 -3 -8 -12 -12 -19 -10 -8 4 -12 23 -11
57 1 48 -1 52 -21 50 -30 -3 -29 3 3 23 20 14 27 15 34 5 4 -7 22 -14 41 -16
36 -3 50 -22 28 -36 -10 -6 -11 -11 -3 -16 6 -5 11 -16 11 -26 0 -10 -3 -14
-7 -10 -3 4 -23 30 -44 56 -21 26 -40 46 -43 43 -2 -2 17 -32 43 -65 26 -34
49 -59 51 -57 2 2 6 14 8 26 2 13 12 31 20 41 13 14 14 22 5 39 -9 16 -9 25 1
36 7 9 8 14 1 14 -6 0 -15 -7 -20 -15 -5 -10 -17 -14 -33 -11 -13 2 -30 5 -36
5 -26 2 -12 19 27 35 31 12 44 25 56 56 9 22 26 46 38 52 20 11 20 10 4 -9
-19 -21 -26 -103 -9 -103 5 0 22 -13 38 -30 36 -39 49 -38 71 6 10 19 29 41
43 47 13 7 26 23 27 37 2 13 11 30 20 38 15 12 15 13 -3 6 -28 -9 -54 -7 -71
7 -24 19 -16 26 34 31 34 3 55 12 74 31 15 15 37 27 50 26 22 0 22 -1 3 -9
-44 -17 -70 -85 -41 -109 8 -7 12 -20 9 -29 -4 -12 0 -11 16 5 25 27 27 35 5
31 -34 -6 -24 21 15 44 40 23 53 51 29 62 -7 3 1 4 17 3 23 -2 30 -7 30 -23 0
-12 8 -31 18 -42 22 -24 14 -46 -13 -39 -12 3 -17 0 -14 -8 3 -7 -2 -15 -10
-18 -20 -8 -20 5 -2 65 8 25 12 49 8 52 -6 6 -26 -58 -38 -121 -5 -27 -11 -33
-32 -33 -20 0 -23 -3 -14 -12 8 -8 21 -5 51 17 23 16 47 25 56 21 10 -3 25 4
39 19 l24 25 -30 32 c-36 39 -24 57 22 33 31 -16 49 -16 108 1 27 8 30 -12 3
-21 -42 -13 -56 -38 -56 -95 0 -62 -7 -58 100 -48 33 4 49 3 35 -1 -14 -4 -20
-10 -14 -13 6 -4 23 -1 38 7 14 8 34 11 43 8 11 -4 14 -3 9 5 -4 7 -13 12 -21
12 -17 0 -31 58 -17 72 7 7 18 0 33 -21 12 -17 29 -31 36 -31 8 0 12 -4 9 -8
-3 -5 7 -7 22 -5 15 3 36 -2 47 -10 18 -14 17 -15 -15 -12 -44 3 -78 -12 -86
-39 -4 -12 -15 -32 -25 -45 -21 -26 -17 -41 9 -40 11 0 12 3 5 6 -7 2 -13 11
-13 19 0 13 11 18 37 15 6 -1 14 3 18 9 3 5 1 10 -4 10 -6 0 -11 7 -11 15 0
18 7 19 56 1 22 -7 46 -11 54 -10 8 2 -15 -10 -52 -27 -67 -32 -85 -49 -50
-49 10 0 28 -11 41 -26 15 -18 28 -23 42 -19 13 4 28 0 41 -12 l21 -18 -17 30
c-14 24 -15 36 -7 58 15 38 29 34 37 -10 8 -40 14 -49 57 -76 15 -10 27 -22
27 -28 0 -5 -10 -3 -22 5 -31 22 -70 20 -101 -4 -14 -11 -30 -20 -35 -20 -5 0
-15 -6 -21 -14 -10 -11 -4 -22 28 -52 22 -20 38 -41 35 -46 -8 -13 16 -38 37
-38 11 0 19 -6 19 -14 0 -8 5 -18 10 -21 7 -4 8 3 4 20 -5 19 -1 32 16 50 28
30 43 23 35 -17 -13 -56 -12 -63 6 -87 11 -13 18 -38 18 -55 -2 -27 -2 -27 -6
-6 -2 14 -18 37 -35 52 -25 22 -35 25 -55 17 -13 -5 -37 -9 -53 -9 -39 0 -43
-11 -20 -61 12 -28 16 -47 10 -53 -15 -15 -12 -23 11 -45 13 -12 19 -26 15
-36 -3 -9 -2 -13 4 -10 6 3 10 13 10 21 0 14 38 34 65 34 7 0 17 -9 20 -20 8
-25 24 -27 21 -2 -2 9 3 34 10 56 17 47 18 90 3 119 -9 16 -9 22 0 25 25 8 32
41 16 78 -8 20 -15 48 -15 63 -1 40 -35 108 -60 116 -16 5 -19 10 -11 18 21
21 11 54 -30 98 -22 24 -54 59 -70 77 -20 21 -39 32 -57 32 -24 0 -28 4 -27
27 0 19 -7 30 -25 39 -14 6 -55 26 -92 44 -56 27 -74 31 -107 25 -33 -5 -41
-4 -41 9 0 8 -9 20 -19 26 -23 12 -26 12 -34 3z m43 -38 c0 -20 -9 -19 -44 4
-25 17 -26 20 -10 23 25 6 54 -9 54 -27z m-280 -16 c0 -5 -18 -9 -41 -7 -41 2
-41 2 -19 20 17 13 26 15 41 8 10 -6 19 -15 19 -21z m130 11 c0 -5 -13 -16
-30 -25 -24 -12 -30 -13 -30 -2 0 7 5 18 12 25 14 14 48 16 48 2z m301 -31
c24 -17 27 -24 18 -35 -7 -8 -9 -27 -5 -49 6 -31 4 -35 -14 -35 -11 0 -20 5
-20 11 0 6 -7 3 -16 -5 -8 -9 -20 -16 -26 -16 -11 0 0 16 44 65 29 31 38 56
14 36 -12 -10 -13 -8 -9 8 4 15 -1 23 -18 30 -13 5 -18 10 -11 10 8 1 27 -8
43 -20z m-522 -26 c15 -16 37 -35 50 -44 19 -14 20 -18 6 -29 -13 -11 -14 -10
-9 3 4 12 1 14 -14 10 -14 -3 -18 -11 -15 -24 3 -10 1 -19 -5 -19 -5 0 -13 17
-16 38 -11 58 -17 73 -29 71 -7 -1 -19 -1 -27 0 -13 1 -13 2 0 11 23 15 30 12
59 -17z m496 12 c0 -5 -18 -11 -40 -13 -38 -3 -39 -2 -20 12 21 17 60 17 60 1z
m-559 -60 c-20 -30 -37 -25 -28 8 6 27 23 40 36 27 5 -5 2 -19 -8 -35z m47
-28 c12 -55 12 -69 1 -78 -21 -17 -34 -1 -28 34 4 24 3 28 -5 17 -7 -11 -13
-12 -21 -4 -8 8 -4 24 12 56 13 25 24 44 25 43 1 0 9 -31 16 -68z m641 57 c18
-17 20 -30 7 -38 -8 -5 -30 15 -45 42 -10 18 19 15 38 -4z m-124 -1 c-1 -17
-89 -95 -99 -89 -20 13 -11 34 17 41 27 7 27 7 5 16 -27 10 -30 26 -5 32 29 8
82 7 82 0z m-190 -13 c0 -5 -8 -10 -17 -10 -15 0 -16 2 -3 10 19 12 20 12 20
0z m-480 -40 c12 -7 7 -12 -20 -24 -39 -16 -56 -2 -24 21 21 15 24 16 44 3z
m931 -83 c9 -15 7 -22 -10 -34 -12 -8 -21 -22 -21 -31 0 -9 -4 -23 -9 -30 -7
-11 -11 -11 -24 2 -8 9 -22 13 -30 10 -8 -3 -18 -1 -21 4 -3 5 19 20 50 32 39
16 53 27 50 37 -4 8 -6 20 -6 26 -1 7 -6 5 -13 -4 -10 -14 -17 -14 -47 -4 -36
13 -31 20 20 27 28 4 46 -6 61 -35z m-898 -42 c-7 -21 -13 -19 -13 6 0 11 4
18 10 14 5 -3 7 -12 3 -20z m-123 -24 c0 -38 -14 -47 -27 -18 -12 27 -6 47 13
47 9 0 14 -11 14 -29z m1078 7 c15 -15 16 -45 1 -53 -13 -9 -15 -6 -24 33 -7
33 2 41 23 20z m-118 -58 c0 -5 -2 -10 -4 -10 -3 0 -8 5 -11 10 -3 6 -1 10 4
10 6 0 11 -4 11 -10z m-1037 -26 c8 -8 -34 -54 -45 -48 -12 8 -10 21 8 38 16
17 27 20 37 10z m1177 -113 c0 -4 -30 -4 -67 -1 -54 4 -68 9 -71 23 -4 19 32
25 43 7 3 -5 11 -10 17 -10 7 0 7 4 -1 13 -8 10 -7 17 1 25 9 9 20 5 45 -20
18 -18 33 -34 33 -37z m7 54 c16 -12 22 -12 26 -2 4 7 6 8 6 1 1 -17 -27 -37
-43 -31 -8 3 -20 15 -26 26 -13 26 5 29 37 6z m-1133 -59 c-4 -12 -2 -16 5
-12 6 4 11 5 11 2 0 -2 3 -11 6 -20 4 -11 -10 -8 -53 13 -32 16 -60 27 -63 24
-2 -2 1 -8 9 -12 9 -6 5 -10 -13 -13 -30 -6 -30 -7 -15 26 9 20 15 23 29 14
12 -8 24 -7 46 4 32 16 47 6 38 -26z m24 19 c-3 -3 -9 2 -12 12 -6 14 -5 15 5
6 7 -7 10 -15 7 -18z m1152 -15 c0 -25 -4 -30 -24 -30 -14 0 -31 -9 -40 -21
-9 -14 -21 -19 -31 -15 -12 4 -16 2 -12 -8 4 -10 1 -13 -8 -10 -12 5 -12 10 2
31 13 20 14 24 2 23 -24 -4 -39 0 -39 9 0 5 29 8 65 6 36 -2 68 1 71 6 3 5 -3
9 -12 9 -16 0 -16 1 2 15 25 19 24 20 24 -15z m-1183 -47 c34 -18 53 -33 53
-45 0 -25 -24 -22 -43 5 -16 22 -16 22 -16 1 -1 -34 -29 -23 -46 18 -23 59
-24 59 52 21z m-67 -9 c17 -43 11 -50 -15 -21 -14 16 -23 33 -20 38 11 16 25
10 35 -17z m1269 -55 c-5 -11 -16 -19 -23 -19 -12 0 -12 7 -3 36 10 32 12 34
24 19 8 -13 9 -23 2 -36z m-1305 -78 c-4 -17 -12 -30 -18 -28 -19 6 -19 40 0
54 23 17 25 13 18 -26z m1166 -6 c0 -8 5 -15 10 -15 6 0 10 7 10 15 0 23 25
18 39 -7 6 -13 9 -15 7 -5 -6 20 -2 21 25 7 22 -12 26 -50 5 -50 -8 0 -17 6
-19 13 -3 7 -6 4 -6 -6 -1 -10 -5 -17 -9 -15 -4 2 -29 12 -55 23 -49 21 -66
55 -27 55 11 0 20 -7 20 -15z m-1050 -15 c0 -5 -2 -10 -4 -10 -3 0 -8 5 -11
10 -3 6 -1 10 4 10 6 0 11 -4 11 -10z m1089 -55 c46 -27 78 -34 48 -11 -17 13
-16 14 7 12 49 -2 27 -41 -24 -42 -19 0 -42 -2 -50 -5 -10 -2 -15 3 -15 16 0
11 -6 24 -12 28 -14 9 -18 27 -5 27 4 0 27 -11 51 -25z m-49 -41 c0 -8 -5 -12
-10 -9 -6 4 -8 11 -5 16 9 14 15 11 15 -7z m-1080 -28 c11 -14 9 -16 -12 -16
-13 0 -29 5 -36 12 -9 9 -12 9 -12 -2 0 -7 -3 -11 -6 -8 -3 4 -1 16 6 27 12
23 34 18 60 -13z m1010 -71 c0 -14 5 -25 10 -25 6 0 10 5 10 10 0 6 7 10 14
10 11 0 16 -15 18 -52 2 -35 8 -53 18 -56 12 -4 13 -2 3 9 -7 7 -13 29 -13 49
1 33 1 34 16 15 8 -11 13 -30 11 -42 -2 -13 0 -23 6 -23 5 0 -3 -12 -18 -26
-25 -23 -29 -24 -37 -10 -6 10 -22 16 -43 16 -28 0 -35 4 -35 20 0 11 5 20 11
20 8 0 8 4 -1 15 -6 8 -10 20 -8 27 3 7 21 -10 42 -40 21 -28 42 -52 48 -52 5
0 -13 30 -42 66 -50 63 -58 94 -25 94 9 0 15 -9 15 -25z m-880 -25 c0 -5 -7
-7 -15 -4 -8 4 -15 8 -15 10 0 2 7 4 15 4 8 0 15 -4 15 -10z m-14 -25 c4 -11
10 -12 18 -6 6 5 17 6 24 2 9 -5 -8 -17 -50 -35 -42 -18 -58 -30 -49 -35 7 -5
11 -16 9 -26 -2 -15 -5 -14 -17 7 -12 23 -11 28 8 47 12 12 21 30 21 41 0 23
28 27 36 5z m109 -35 c0 -8 -9 -16 -20 -16 -11 -1 -24 -2 -29 -3 -6 -1 -5 -6
2 -13 30 -30 12 -33 -77 -11 l-34 8 64 27 c69 29 94 31 94 8z m732 -15 c0 -8
-4 -15 -9 -15 -4 0 -8 7 -8 15 0 8 4 15 8 15 5 0 9 -7 9 -15z m-105 -67 c-18
-18 -15 -33 3 -18 29 24 39 -3 16 -41 -26 -42 -27 -66 -3 -72 13 -3 10 -6 -11
-11 -21 -7 -31 -4 -45 13 -9 12 -28 27 -42 34 -25 13 -40 47 -21 47 6 0 8 -7
4 -16 -5 -14 -3 -14 16 -3 12 8 21 24 21 39 0 40 19 3 26 -53 4 -26 11 -50 15
-53 12 -7 11 5 -6 81 -13 53 -13 70 -4 81 11 13 14 13 28 0 12 -12 13 -19 3
-28z m-712 17 c20 -11 21 -15 8 -16 -10 -1 -24 -2 -30 -3 -15 -3 -38 13 -38
25 0 13 32 10 60 -6z m157 -31 c-3 -3 -12 -4 -19 -1 -8 3 -5 6 6 6 11 1 17 -2
13 -5z m737 -17 c-8 -21 -43 -32 -57 -18 -7 7 -1 15 24 25 38 16 42 15 33 -7z
m-704 -27 c-17 -22 -36 -42 -41 -45 -5 -4 -9 -14 -9 -23 0 -13 4 -11 16 7 35
50 89 101 106 101 10 0 18 -3 18 -7 0 -14 -17 -35 -26 -33 -5 1 -10 -4 -13
-11 -2 -7 1 -9 8 -5 7 5 11 -1 11 -13 0 -17 -7 -21 -32 -22 l-33 -1 30 -7 29
-6 -24 -16 c-42 -27 -63 -30 -89 -10 -19 14 -21 22 -13 37 5 10 7 34 5 52 -6
35 -2 38 28 22 12 -7 19 -7 19 -1 0 5 8 12 18 14 9 3 19 5 20 6 2 0 -11 -17
-28 -39z m310 4 c0 -9 -8 -23 -17 -30 -17 -12 -16 -13 5 -14 34 0 26 -24 -18
-53 -50 -33 -51 -26 -5 101 7 18 35 15 35 -4z m-66 -41 c-4 -16 -11 -38 -15
-51 -13 -34 -11 -52 4 -46 8 3 19 -1 25 -9 9 -11 6 -13 -18 -9 -23 3 -30 10
-30 26 0 12 -7 32 -16 44 -16 24 -10 46 11 38 7 -2 15 4 18 15 8 31 28 23 21
-8z m-49 7 c-3 -5 -11 -10 -16 -10 -6 0 -7 5 -4 10 3 6 11 10 16 10 6 0 7 -4
4 -10z m111 -85 c-17 -26 -36 -29 -43 -8 -4 11 48 45 56 37 2 -2 -4 -15 -13
-29z m143 6 c10 -1 11 -4 2 -15 -7 -8 -20 -13 -29 -11 -9 2 -20 4 -24 4 -5 1
-8 7 -8 14 0 8 9 13 23 11 12 -1 28 -3 36 -3z m-284 -41 c-9 -15 -41 -12 -55
5 -20 25 -2 37 31 20 16 -9 27 -20 24 -25z"/>
<path d="M553 133 c-16 -6 -17 -43 -2 -43 5 0 7 5 3 11 -3 6 0 15 7 20 16 9
10 18 -8 12z"/>
<path d="M910 1230 c0 -5 5 -10 11 -10 5 0 7 5 4 10 -3 6 -8 10 -11 10 -2 0
-4 -4 -4 -10z"/>
<path d="M675 1080 c-121 -26 -196 -126 -165 -220 7 -21 25 -50 39 -63 34 -32
127 -80 140 -73 5 4 12 20 16 37 6 24 2 34 -18 53 -91 84 -14 242 110 227 16
-2 27 19 17 29 -12 12 -102 18 -139 10z"/>
<path d="M836 1059 c-9 -13 -16 -28 -16 -33 0 -6 -43 -124 -96 -264 -95 -249
-96 -254 -82 -290 14 -37 76 -89 88 -75 4 5 20 42 35 83 15 41 53 145 86 230
32 85 61 169 65 185 9 42 22 55 53 55 30 0 61 -23 85 -62 l17 -27 -59 -16
c-74 -21 -113 -59 -145 -140 l-23 -60 27 -28 c33 -34 40 -65 23 -112 -16 -48
-49 -83 -99 -106 l-39 -18 28 -7 c44 -11 128 2 169 26 69 41 89 127 48 208
-35 68 -88 99 -121 70 -8 -7 -6 -3 4 9 21 25 58 38 131 48 130 16 204 70 185
135 -32 111 -149 198 -280 208 -62 4 -68 3 -84 -19z"/>
<path d="M1025 596 c37 -88 7 -173 -75 -213 -83 -41 -189 -36 -262 12 -63 42
-84 97 -63 164 6 19 3 21 -40 21 -57 0 -110 -21 -125 -51 -20 -37 -7 -115 27
-157 45 -57 132 -96 219 -99 237 -7 414 147 346 300 -24 53 -48 74 -27 23z"/>
<path d="M123 427 c-13 -16 -83 -137 -83 -143 0 -2 40 -4 90 -4 l90 0 -12 25
c-11 24 -19 29 -45 26 -18 -2 -26 18 -13 33 11 14 5 62 -10 71 -4 3 -12 -1
-17 -8z"/>
<path d="M1461 422 c-14 -27 -14 -55 1 -70 7 -7 8 -12 3 -13 -34 -2 -51 -11
-67 -31 l-17 -23 50 -3 c27 -2 69 -2 93 0 l44 3 -42 72 c-52 89 -52 89 -65 65z"/>
</g>
</svg>
